<svg width="1042" height="1042" viewBox="0 0 1042 1042" fill="none" xmlns="http://www.w3.org/2000/svg">
<g clip-path="url(#clip0_283_12684)">
<rect width="1041.1" height="1041.1" rx="229.34" fill="url(#paint0_linear_283_12684)"/>
<path opacity="0.2" d="M185.751 1181.02L-42.2856 975.158L-184.558 51.0434L960.858 -160.998L185.751 1181.02Z" fill="url(#paint1_linear_283_12684)"/>
<path opacity="0.2" d="M83.7174 1181.02L-126.232 956.742L-190.422 23.9462L668.341 -88.1989L83.7174 1181.02Z" fill="url(#paint2_linear_283_12684)"/>
</g>
<path d="M192.891 693.573L355.752 293.565C363.162 275.366 387.474 271.972 399.584 287.447L525.059 437.917C533.497 448.698 531.949 464.211 521.548 473.113L233.212 722.65C212.839 740.087 182.779 718.409 192.891 693.573Z" fill="url(#paint3_linear_283_12684)"/>
<path d="M781.277 739.375L662.499 597.962C656.741 590.166 645.968 585.142 635.058 590.166L390.125 711.147C363.157 723.567 340.237 687.788 362.794 668.483L801.111 293.359C819.061 277.998 846.459 293.102 843.052 316.48L826.981 727.628C823.708 750.089 794.975 757.474 781.277 739.375Z" fill="url(#paint4_linear_283_12684)"/>
<defs>
<linearGradient id="paint0_linear_283_12684" x1="855.192" y1="1314.63" x2="-128.245" y2="405.161" gradientUnits="userSpaceOnUse">
<stop stop-color="#7C316D"/>
<stop offset="0.585" stop-color="#0B0B3C"/>
<stop offset="1" stop-color="#1A2E73"/>
</linearGradient>
<linearGradient id="paint1_linear_283_12684" x1="421.138" y1="1144.78" x2="234.574" y2="-67.0322" gradientUnits="userSpaceOnUse">
<stop stop-color="white" stop-opacity="0"/>
<stop offset="1" stop-color="white" stop-opacity="0.3"/>
</linearGradient>
<linearGradient id="paint2_linear_283_12684" x1="321.316" y1="1164.67" x2="237.143" y2="-58.5263" gradientUnits="userSpaceOnUse">
<stop stop-color="white" stop-opacity="0"/>
<stop offset="1" stop-color="white" stop-opacity="0.3"/>
</linearGradient>
<linearGradient id="paint3_linear_283_12684" x1="314.748" y1="383.172" x2="449.388" y2="820.638" gradientUnits="userSpaceOnUse">
<stop stop-color="white"/>
<stop offset="1" stop-color="#AA75B1"/>
</linearGradient>
<linearGradient id="paint4_linear_283_12684" x1="532.253" y1="395.269" x2="634.657" y2="863.536" gradientUnits="userSpaceOnUse">
<stop stop-color="white"/>
<stop offset="1" stop-color="#AA75B1"/>
</linearGradient>
<clipPath id="clip0_283_12684">
<rect width="1041.1" height="1041.1" rx="229.34" fill="white"/>
</clipPath>
</defs>
</svg>
