<svg width="1042" height="1042" viewBox="0 0 1042 1042" fill="none" xmlns="http://www.w3.org/2000/svg">
<g clip-path="url(#clip0_283_13723)">
<rect width="1041.1" height="1041.1" rx="229.34" fill="url(#paint0_linear_283_13723)"/>
<path opacity="0.2" d="M185.751 1181.02L-42.2858 975.158L-184.558 51.0434L960.858 -160.998L185.751 1181.02Z" fill="url(#paint1_linear_283_13723)"/>
<path opacity="0.2" d="M83.7175 1181.02L-126.232 956.742L-190.422 23.9462L668.341 -88.1989L83.7175 1181.02Z" fill="url(#paint2_linear_283_13723)"/>
</g>
<path d="M227.392 687.832L374.417 326.719C381.107 310.289 403.054 307.225 413.987 321.195L527.262 457.035C534.879 466.767 533.482 480.772 524.092 488.808L263.792 714.082C245.4 729.823 218.263 710.254 227.392 687.832Z" fill="url(#paint3_linear_283_13723)"/>
<path d="M758.578 729.173L651.349 601.511C646.152 594.473 636.426 589.937 626.577 594.473L405.46 703.69C381.114 714.903 360.422 682.602 380.786 665.174L776.484 326.525C792.688 312.658 817.423 326.293 814.347 347.398L799.839 718.568C796.884 738.846 770.945 745.513 758.578 729.173Z" fill="url(#paint4_linear_283_13723)"/>
<defs>
<linearGradient id="paint0_linear_283_13723" x1="855.192" y1="1314.63" x2="-128.245" y2="405.161" gradientUnits="userSpaceOnUse">
<stop stop-color="#7C316D"/>
<stop offset="0.585" stop-color="#0B0B3C"/>
<stop offset="1" stop-color="#1A2E73"/>
</linearGradient>
<linearGradient id="paint1_linear_283_13723" x1="421.138" y1="1144.78" x2="234.574" y2="-67.0322" gradientUnits="userSpaceOnUse">
<stop stop-color="white" stop-opacity="0"/>
<stop offset="1" stop-color="white" stop-opacity="0.3"/>
</linearGradient>
<linearGradient id="paint2_linear_283_13723" x1="321.317" y1="1164.67" x2="237.143" y2="-58.5263" gradientUnits="userSpaceOnUse">
<stop stop-color="white" stop-opacity="0"/>
<stop offset="1" stop-color="white" stop-opacity="0.3"/>
</linearGradient>
<linearGradient id="paint3_linear_283_13723" x1="337.4" y1="407.613" x2="458.949" y2="802.542" gradientUnits="userSpaceOnUse">
<stop stop-color="#0CF4DF"/>
<stop offset="1" stop-color="#1F3395"/>
</linearGradient>
<linearGradient id="paint4_linear_283_13723" x1="533.768" y1="418.526" x2="626.215" y2="841.261" gradientUnits="userSpaceOnUse">
<stop stop-color="#0CF4DF"/>
<stop offset="1" stop-color="#1F3395"/>
</linearGradient>
<clipPath id="clip0_283_13723">
<rect width="1041.1" height="1041.1" rx="229.34" fill="white"/>
</clipPath>
</defs>
</svg>
