<svg xmlns="http://www.w3.org/2000/svg" viewBox="40 30 200 180">
  <defs>
    <style>
      .border { fill: none; stroke: #6b7280; stroke-miterlimit: 10; stroke-width: 2.5px; }
      .gold { fill: #cd9f26; stroke-width: 0px; }
      .teal { fill: #4ac1e0; stroke-width: 0px; }
    </style>
  </defs>
  <g>
    <path class="teal" d="M145.2,56.71c15.35,0,29.33,5.91,39.77,15.59l13.51-14.8c-8.13-7.5-17.87-13.29-28.62-16.84h-49.33c-31.3,10.35-53.9,39.81-53.9,74.59,0,.79.03,2.28.05,3.06h20.07c-.04-.79-.08-2.28-.08-3.06,0-32.33,26.21-58.53,58.53-58.53Z"/>
    <polygon class="gold" points="144.38 118.3 144.38 138.44 183.16 138.44 183.16 173.87 202.86 173.87 202.86 118.32 204.04 118.32 204.04 118.3 144.38 118.3"/>
    <path class="teal" d="M143.19,195.78v-20.04c-27.83-.35-50.94-20.09-56.47-46.35v41.57c14.17,15.15,34.13,24.61,56.47,24.82Z"/>
  </g>
  <path class="border" d="M227.38,39.75H58.12c-5.93,0-10.78,4.85-10.78,10.78v57.85c0,5.93,4.85,10.78,10.78,10.78h27.73v75.87c0,5.93,4.85,10.78,10.78,10.78h96.13c5.93,0,10.78-4.85,10.78-10.78v-75.87h23.83c5.93,0,10.78-4.85,10.78-10.78v-57.85c0-5.93-4.85-10.78-10.78-10.78Z"/>
</svg>
