<svg width="1200" height="630" viewBox="0 0 1200 630" fill="none" xmlns="http://www.w3.org/2000/svg">
  <defs>
    <linearGradient id="bg" x1="1200" y1="0" x2="0" y2="630" gradientUnits="userSpaceOnUse">
      <stop stop-color="#7C316D"/>
      <stop offset="0.55" stop-color="#0B0B3C"/>
      <stop offset="1" stop-color="#1A2E73"/>
    </linearGradient>
    <linearGradient id="overlay1" x1="500" y1="800" x2="300" y2="-100" gradientUnits="userSpaceOnUse">
      <stop stop-color="white" stop-opacity="0"/>
      <stop offset="1" stop-color="white" stop-opacity="0.06"/>
    </linearGradient>
    <linearGradient id="overlay2" x1="400" y1="820" x2="280" y2="-40" gradientUnits="userSpaceOnUse">
      <stop stop-color="white" stop-opacity="0"/>
      <stop offset="1" stop-color="white" stop-opacity="0.04"/>
    </linearGradient>
    <linearGradient id="accent" x1="0" y1="0" x2="400" y2="0" gradientUnits="userSpaceOnUse">
      <stop stop-color="#0CF4DF"/>
      <stop offset="1" stop-color="#254FE5"/>
    </linearGradient>
    <linearGradient id="mark1" x1="44" y1="28" x2="73" y2="122" gradientUnits="userSpaceOnUse">
      <stop stop-color="#0CF4DF"/>
      <stop offset="1" stop-color="#1F3395"/>
    </linearGradient>
    <linearGradient id="mark2" x1="90" y1="31" x2="112" y2="131" gradientUnits="userSpaceOnUse">
      <stop stop-color="#0CF4DF"/>
      <stop offset="1" stop-color="#1F3395"/>
    </linearGradient>
  </defs>

  <!-- Background -->
  <rect width="1200" height="630" fill="url(#bg)"/>

  <!-- Subtle light overlays -->
  <path opacity="0.5" d="M200 900L-100 700L-200 0L900 -200L200 900Z" fill="url(#overlay1)"/>
  <path opacity="0.4" d="M180 880L-50 720L-80 50L550 -50L180 880Z" fill="url(#overlay2)"/>

  <!-- Reverse Logo (gradient mark + white wordmark) -->
  <g transform="translate(80, 60) scale(0.38)">
    <path d="M18.1 94.945L52.9693 9.30142C54.5558 5.4049 59.761 4.67828 62.3539 7.9914L89.2188 40.2078C91.0252 42.5161 90.6939 45.8374 88.467 47.7433L26.7328 101.171C22.3709 104.904 15.935 100.263 18.1 94.945Z" fill="url(#mark1)"/>
    <path d="M144.078 104.749L118.647 74.4723C117.414 72.8031 115.107 71.7273 112.772 72.8031L60.3303 98.7056C54.5564 101.365 49.649 93.7043 54.4786 89.571L148.324 9.25522C152.167 5.96628 158.034 9.20015 157.304 14.2055L153.863 102.234C153.162 107.043 147.011 108.624 144.078 104.749Z" fill="url(#mark2)"/>
    <path d="M196.754 83.3824L205.475 21.332H216.574L231.366 58.1191L256.498 21.332H267.24L258.519 83.3824H247.777L253.882 39.9472L233.024 70.5291H225.862L213.6 39.9472L207.496 83.3824H196.754Z" fill="white"/>
    <path d="M289.723 84.3579C285.366 84.3579 281.552 83.4715 278.28 81.6986C275.017 79.8667 272.59 77.1778 271 73.6321C269.477 70.0272 269.086 65.5951 269.825 60.3356L270.074 58.5627C270.772 53.5987 272.376 49.4029 274.887 45.9753C277.465 42.4887 280.64 39.8589 284.41 38.0861C288.18 36.3132 292.243 35.4268 296.599 35.4268C301.016 35.4268 304.83 36.3132 308.042 38.0861C311.313 39.8589 313.719 42.4887 315.258 45.9753C316.865 49.4029 317.319 53.5987 316.622 58.5627L316.373 60.3356C315.633 65.5951 313.966 70.0272 311.371 73.6321C308.844 77.1778 305.691 79.8667 301.912 81.6986C298.202 83.4715 294.139 84.3579 289.723 84.3579ZM290.919 75.8482C293.186 75.8482 295.409 75.3163 297.588 74.2526C299.766 73.1889 301.64 71.5342 303.209 69.2886C304.786 66.9838 305.832 63.9995 306.347 60.3356L306.596 58.5627C307.069 55.1942 306.829 52.4463 305.875 50.3189C304.929 48.1323 303.512 46.5367 301.624 45.5321C299.745 44.4684 297.671 43.9365 295.404 43.9365C293.136 43.9365 290.913 44.4684 288.734 45.5321C286.564 46.5367 284.699 48.1323 283.138 50.3189C281.586 52.4463 280.573 55.1942 280.1 58.5627L279.851 60.3356C279.336 63.9995 279.543 66.9838 280.472 69.2886C281.41 71.5342 282.818 73.1889 284.698 74.2526C286.577 75.3163 288.651 75.8482 290.919 75.8482Z" fill="white"/>
    <path d="M319.365 83.3829L325.967 36.4018H335.098L333.977 44.3797C335.391 41.9568 337.417 39.8589 340.053 38.0861C342.689 36.3132 345.559 35.4268 348.662 35.4268C352.601 35.4268 355.558 36.2541 357.533 37.9088C359.509 39.5635 360.727 41.7204 361.189 44.3797C362.935 41.7204 365.148 39.5635 367.828 37.9088C370.566 36.2541 373.577 35.4268 376.859 35.4268C381.812 35.4268 385.428 36.8746 387.707 39.7703C389.985 42.666 390.697 47.1572 389.841 53.2441L385.606 83.3829H375.759L379.683 55.4602C380.273 51.2644 379.882 48.3096 378.512 46.5958C377.21 44.823 375.216 43.9365 372.53 43.9365C370.382 43.9365 368.521 44.4388 366.948 45.4435C365.442 46.389 364.207 47.7482 363.242 49.5211C362.285 51.2348 361.648 53.2145 361.333 55.4602L357.408 83.3829H347.562L351.486 55.4602C352.076 51.2644 351.685 48.3096 350.315 46.5958C349.013 44.823 347.019 43.9365 344.333 43.9365C342.185 43.9365 340.324 44.4388 338.751 45.4435C337.245 46.389 336.01 47.7482 335.044 49.5211C334.087 51.2348 333.451 53.2145 333.136 55.4602L329.211 83.3829H319.365Z" fill="white"/>
    <path d="M414.561 84.3579C410.383 84.3579 406.654 83.5011 403.374 81.7873C400.103 80.0144 397.642 77.3551 395.992 73.8094C394.342 70.2636 393.899 65.7724 394.663 60.3356L394.912 58.5627C395.643 53.3623 397.264 49.0483 399.774 45.6208C402.345 42.1932 405.447 39.6521 409.081 37.9974C412.724 36.2836 416.544 35.4268 420.542 35.4268C427.763 35.4268 433.013 37.3474 436.293 41.1886C439.632 45.0298 440.799 50.5257 439.794 57.6763L439.096 62.6403H404.365C404.035 65.8315 404.36 68.4021 405.34 70.3523C406.319 72.3024 407.731 73.7207 409.575 74.6072C411.428 75.4345 413.489 75.8482 415.757 75.8482C419.158 75.8482 421.709 75.3163 423.41 74.2526C425.171 73.1889 426.47 71.8001 427.308 70.0863H437.155C435.544 74.7549 432.688 78.3006 428.588 80.7236C424.548 83.1465 419.872 84.3579 414.561 84.3579ZM419.794 43.9365C417.586 43.9365 415.473 44.3206 413.455 45.0889C411.438 45.8571 409.716 47.0686 408.29 48.7233C406.864 50.378 405.896 52.594 405.386 55.3715H430.271C430.627 52.4167 430.384 50.112 429.542 48.4573C428.701 46.8027 427.43 45.6503 425.731 45.0002C424.041 44.2911 422.062 43.9365 419.794 43.9365Z" fill="white"/>
    <path d="M442.454 83.3829L449.057 36.4018H458.187L457.079 44.2911C458.545 41.9273 460.685 39.8589 463.5 38.0861C466.316 36.3132 469.752 35.4268 473.81 35.4268C479.599 35.4268 483.735 36.9928 486.219 40.1249C488.711 43.1978 489.538 47.7186 488.699 53.6873L484.526 83.3829H474.679L478.541 55.9034C479.098 51.944 478.682 48.9597 477.293 46.9504C475.905 44.9412 473.301 43.9365 469.481 43.9365C466.736 43.9365 464.415 44.5275 462.519 45.7094C460.69 46.8322 459.229 48.3096 458.136 50.1416C457.111 51.9144 456.453 53.835 456.163 55.9034L452.301 83.3829H442.454Z" fill="white"/>
    <path d="M511.36 83.8261C507.779 83.8261 504.926 83.3238 502.799 82.3192C500.732 81.3145 499.311 79.7485 498.536 77.6211C497.829 75.4345 497.716 72.6275 498.198 69.1999L501.636 44.7343H494.923L496.094 36.4019H502.807L504.302 25.7646H514.149L512.654 36.4019H524.739L523.568 44.7343H511.483L508.232 67.8703C507.841 70.6478 508.074 72.5979 508.931 73.7208C509.856 74.7845 511.81 75.3163 514.794 75.3163C516.584 75.3163 518.387 75.2277 520.202 75.0504L519.031 83.3829C517.88 83.5011 516.704 83.5897 515.503 83.6488C514.292 83.767 512.912 83.8261 511.36 83.8261Z" fill="white"/>
    <path d="M526.227 83.3826L532.83 36.4015H542.677L536.074 83.3826H526.227ZM538.501 31.0829C536.651 31.0829 535.208 30.5215 534.172 29.3987C533.205 28.2168 532.849 26.7099 533.107 24.8779C533.364 23.0459 534.139 21.5685 535.431 20.4457C536.79 19.2638 538.395 18.6729 540.245 18.6729C542.095 18.6729 543.504 19.2638 544.472 20.4457C545.507 21.5685 545.896 23.0459 545.639 24.8779C545.382 26.7099 544.573 28.2168 543.213 29.3987C541.922 30.5215 540.351 31.0829 538.501 31.0829Z" fill="white"/>
    <path d="M548.564 83.3833L553.995 44.7347H547.729L548.9 36.4022H555.166L555.353 35.0726C555.793 31.9405 556.666 29.3403 557.971 27.272C559.345 25.1445 561.27 23.549 563.746 22.4852C566.223 21.4215 569.312 20.8896 573.012 20.8896C573.907 20.8896 574.917 20.9192 576.043 20.9783C577.177 20.9783 578.392 21.0374 579.688 21.1556L578.492 29.6654C577.613 29.5472 576.637 29.4881 575.563 29.4881C574.557 29.429 573.606 29.3994 572.711 29.3994C570.204 29.3994 568.378 29.8722 567.23 30.8177C566.151 31.7041 565.453 33.2702 565.138 35.5158L565.013 36.4022H576.65L575.479 44.7347H563.842L558.41 83.3833H548.564Z" fill="white"/>
    <path d="M581.72 102.087C580.825 102.087 579.942 101.998 579.072 101.821L580.268 93.3114C581.138 93.4887 582.021 93.5774 582.916 93.5774C584.229 93.5774 585.349 93.2523 586.276 92.6023C587.194 92.0113 588.115 90.9772 589.039 89.4998C589.963 88.0224 591.085 85.9836 592.405 83.3834L578.867 36.4023H589.609L599.003 72.7462L617.179 36.4023H627.205L602.252 83.3834C599.907 87.7564 597.763 91.3317 595.821 94.1092C593.879 96.8867 591.836 98.896 589.693 100.137C587.541 101.437 584.883 102.087 581.72 102.087Z" fill="white"/>
  </g>

  <!-- Headline -->
  <text x="80" y="310" font-family="Inter, sans-serif" font-size="72" font-weight="500" letter-spacing="-1.8" fill="white">Empower Every</text>
  <text x="80" y="390" font-family="Inter, sans-serif" font-size="72" font-weight="500" letter-spacing="-1.8" fill="url(#accent)">Moment.</text>

  <!-- Tagline -->
  <text x="80" y="450" font-family="Inter, sans-serif" font-size="18" font-weight="300" fill="rgba(255,255,255,0.55)">The operating system for in-person engagement.</text>

  <!-- Bottom accent line -->
  <rect x="80" y="560" width="200" height="3" rx="1.5" fill="url(#accent)" opacity="0.6"/>
</svg>
