<svg clip-rule="evenodd" fill-rule="evenodd" stroke-linejoin="round" stroke-miterlimit="2" viewBox="0 0 560 400" xmlns="http://www.w3.org/2000/svg"><g fill-rule="nonzero" transform="matrix(1.8 0 0 1.8 -293.298 48.8)"><path d="m408.8 76.7 18.4-17.7h.6v10.7h14.3v8.4h-14.3v15.1c0 4.7 2.8 7 7.3 7 3.2 0 6.3-1 8.9-2.9v8.6c-3.4 1.9-7.3 2.8-11.2 2.6-4.7.3-9.2-1.7-12.2-5.3-.7-.8-1.3-2-1.8-3.4-.4-1.3-.7-3.8-.7-7.5v-14.2h-9.2z"/><path d="m368 70.8v4.7c5.2-3.6 11.5-5.6 17.9-5.5 3.5 0 6.8.6 9.8 1.8 2.6.9 4.9 2.6 6.4 4.9 1.6 2.3 2.4 5.4 2.4 10v21.3h-10.5v-19.6c0-3.8-1.5-6.6-3.2-8.2s-4.7-2.7-8.8-2.7c-5.3 0-10.1 2-13.9 5.5v25h-10.7v-37.2z"/><path d="m309.1 83.5c1.1-2.5 3-4.5 5.4-5.6 3-1.5 6.4-2.2 9.8-2.1 3.9 0 6.9 1 9.2 2.3 2.2 1.1 3.9 3.1 4.6 5.4zm39.7 5.9c0-4.3-1-9.2-5.5-13.4-4.4-4.1-10.5-6.5-18.6-6.5-8.5 0-15.5 1.3-20.3 5.5-4.2 3.4-6.6 8.6-6.6 14 .1 7.5 4.7 14.2 11.7 17.1 4.1 2 10.1 2.7 16.8 2.7 10.1 0 17.7-2.2 21.7-4.9v-7.7c-6.1 3.1-12.9 4.7-19.8 4.6-5.7 0-8.7-.2-13.7-2.4-3.5-1.5-6.3-4.7-6.3-8h40.6z"/><path d="m285.2 70.8h12l-24.8 37.3h-3.9l-25.4-37.3h12.1l15.3 23.5z"/><path d="m239.5 98v8.9c-5.9 1.4-11.7 2.1-17.3 2.1-9.3 0-16.2-1.8-21.5-5.3-4.9-3-7.8-8.4-7.7-14.1 0-5.9 2.3-10.9 7.4-14.6 5.1-3.6 11.7-5.3 20.6-5.3 5.9 0 11.7.8 17.3 2.6v9.1c-5.3-2.2-10.9-3.4-16.6-3.3-4.9 0-10.2 1.2-13.2 3.2-2.8 1.7-4.5 4.8-4.5 8.1s1.9 6.1 5 8.1c3.3 2.1 9.5 3.1 15 3.1 4.4-.1 9.6-.9 15.5-2.6" fill="#4a90e2"/></g></svg>
