<svg viewBox="10 7 35 34" fill="none" xmlns="http://www.w3.org/2000/svg">
<path d="M32.0999 23.1943L18.9857 20.7943V38.5279C18.9857 39.3378 19.6187 39.9943 20.3997 39.9943H43.0288C43.8097 39.9943 44.4428 39.3378 44.4428 38.5279V31.9943L32.0999 23.1943Z" fill="#185C37"/>
<path d="M32.0999 7.99438H20.3997C19.6187 7.99438 18.9857 8.65091 18.9857 9.46078V15.9944L32.0999 23.9944L39.0428 26.3944L44.4428 23.9944V15.9944L32.0999 7.99438Z" fill="#21A366"/>
<path d="M18.9857 15.9944H32.0999V23.9944H18.9857V15.9944Z" fill="#107C41"/>
<path opacity="0.1" d="M28.3716 14.3944H18.9857V34.3944H28.3716C29.1515 34.3918 29.7831 33.7368 29.7857 32.928V15.8608C29.7831 15.052 29.1515 14.397 28.3716 14.3944Z" fill="black"/>
<path opacity="0.2" d="M27.6002 15.1945H18.9857V35.1945H27.6002C28.3801 35.1918 29.0117 34.5368 29.0142 33.7281V16.6609C29.0117 15.8521 28.3801 15.1971 27.6002 15.1945Z" fill="black"/>
<path opacity="0.2" d="M27.6002 15.1945H18.9857V33.5945H27.6002C28.3801 33.5918 29.0117 32.9368 29.0142 32.1281V16.6609C29.0117 15.8521 28.3801 15.1971 27.6002 15.1945Z" fill="black"/>
<path opacity="0.2" d="M26.8288 15.1945H18.9857V33.5945H26.8288C27.6087 33.5918 28.2403 32.9368 28.2428 32.1281V16.6609C28.2403 15.8521 27.6087 15.1971 26.8288 15.1945Z" fill="black"/>
<path d="M12.6854 15.1945H26.8288C27.6098 15.1945 28.2428 15.851 28.2428 16.6609V31.328C28.2428 32.1379 27.6098 32.7944 26.8288 32.7944H12.6854C11.9045 32.7945 11.2714 32.1379 11.2714 31.3281V16.6609C11.2714 15.851 11.9045 15.1945 12.6854 15.1945Z" fill="url(#paint0_linear_1222_69)"/>
<path d="M15.6509 28.7608L18.6255 23.9808L15.9001 19.2272H18.0924L19.5798 22.2672C19.7171 22.556 19.8112 22.7704 19.8621 22.912H19.8814C19.9775 22.685 20.0804 22.4611 20.19 22.2408L21.7799 19.2288H23.7925L20.9976 23.9544L23.8635 28.7608H21.722L20.0041 25.424C19.9231 25.282 19.8545 25.1329 19.7989 24.9784H19.7734C19.7231 25.1297 19.6563 25.2747 19.5744 25.4104L17.8055 28.7608H15.6509Z" fill="white"/>
<path d="M43.0289 7.99438H32.1V15.9944H44.4429V9.46078C44.4429 8.65091 43.8098 7.99438 43.0289 7.99438Z" fill="#33C481"/>
<path d="M32.1 23.9944H44.4429V31.9944H32.1V23.9944Z" fill="#107C41"/>
<defs>
<linearGradient id="paint0_linear_1222_69" x1="14.2197" y1="14.0486" x2="25.9096" y2="33.572" gradientUnits="userSpaceOnUse">
<stop stop-color="#18884F"/>
<stop offset="0.5" stop-color="#117E43"/>
<stop offset="1" stop-color="#0B6631"/>
</linearGradient>
</defs>
</svg>
