<svg viewBox="16 6 27 36" fill="none" xmlns="http://www.w3.org/2000/svg">
<path d="M40.9798 38.1864C40.9794 38.6672 40.7882 39.1283 40.4482 39.4683C40.1081 39.8084 39.6471 39.9996 39.1662 39.9999H19.815C19.3342 39.9999 18.8729 39.8091 18.5326 39.4694C18.1923 39.1296 18.0008 38.6687 18 38.1878V9.8641C17.9998 9.6257 18.0466 9.38959 18.1378 9.1693C18.2289 8.949 18.3626 8.74884 18.5312 8.58026C18.6998 8.41168 18.8999 8.27799 19.1202 8.18685C19.3405 8.0957 19.5766 8.04888 19.815 8.04907H32.2341L40.9798 16.9681V38.1864Z" fill="#23A566"/>
<path d="M33.1964 16.7356L40.9796 24.1749V16.9162H34.0851C33.7841 16.9196 33.4874 16.8449 33.2238 16.6995L33.1964 16.7356Z" fill="#1C8F5A"/>
<path d="M40.9798 16.9538H34.0665C33.5857 16.9534 33.1246 16.7622 32.7846 16.4221C32.4445 16.0821 32.2533 15.6211 32.253 15.1402V8L40.9798 16.9538Z" fill="#8ED1B1"/>
<path fill-rule="evenodd" clip-rule="evenodd" d="M35.4466 34.1098H23.4885V23.7413H35.4466V34.1098ZM30.211 25.237V27.052H33.9769V25.2399L30.211 25.237ZM30.211 28.1951V29.9292H33.9769V28.1864L30.211 28.1951ZM30.211 31.0347V32.6402H33.9769V31.026L30.211 31.0347ZM28.7327 32.6315V31.026H24.9682V32.6315H28.7327ZM28.7327 29.9104V28.1864H24.9682V29.9191L28.7327 29.9104ZM28.7327 27.0708V25.237H24.9682V27.052L28.7327 27.0708Z" fill="white"/>
</svg>
