<svg viewBox="12 5 34 38" fill="none" xmlns="http://www.w3.org/2000/svg">
<path d="M44.2232 23.1005C43.4258 21.7286 42.3042 20.6288 40.9019 19.8008C39.854 19.1908 38.7675 18.8036 37.543 18.6374V14.2783C38.7675 13.7584 39.5274 12.6077 39.5274 11.2652C39.5274 9.43533 38.06 7.95252 36.2316 7.95252C34.4018 7.95252 32.9087 9.43533 32.9087 11.2652C32.9087 12.6077 33.6247 13.7584 34.8492 14.2783V18.6393C33.8696 18.7809 32.8538 19.0863 31.9262 19.5555C30.0315 18.1165 23.8186 13.3957 20.1841 10.6385C20.2703 10.3277 20.3367 10.0074 20.3367 9.66945C20.3367 7.64273 18.6954 6 16.668 6C14.6405 6 13 7.64273 13 9.66945C13 11.6959 14.6422 13.3391 16.6697 13.3391C17.3613 13.3391 18.0009 13.1369 18.5529 12.8043L19.3199 13.3862L29.859 20.9798C29.3019 21.4913 28.783 22.0732 28.3679 22.7261C27.5267 24.0571 27.0127 25.5215 27.0127 27.1189V27.4522C27.0127 28.5736 27.2257 29.6322 27.5887 30.6268C27.9082 31.4951 28.3755 32.2847 28.9542 32.9985L25.4564 36.5049C24.9495 36.3162 24.399 36.2775 23.8706 36.3933C23.3423 36.5092 22.8585 36.7748 22.477 37.1582C22.2129 37.421 22.0036 37.7336 21.8612 38.0779C21.7188 38.4222 21.6461 38.7913 21.6474 39.1639C21.6476 39.9214 21.9427 40.6333 22.4785 41.1688C22.7411 41.4331 23.0536 41.6427 23.3978 41.7854C23.742 41.928 24.1111 42.001 24.4837 42C24.8564 42.0009 25.2256 41.928 25.5699 41.7853C25.9142 41.6426 26.2268 41.4331 26.4896 41.1688C26.7535 40.906 26.9628 40.5935 27.1053 40.2494C27.2478 39.9053 27.3207 39.5364 27.3198 39.1639C27.3198 38.8708 27.2745 38.5847 27.1892 38.3129L30.8046 34.6971C31.3002 35.0394 31.8356 35.3277 32.4111 35.5762C33.5461 36.067 34.799 36.366 36.1701 36.366H36.4214C37.9373 36.366 39.3672 36.01 40.7114 35.2816C42.1279 34.512 43.2365 33.4594 44.074 32.1157C44.916 30.7683 45.3795 29.2796 45.3795 27.6418V27.56C45.3795 25.9488 45.0066 24.4624 44.2232 23.1005ZM39.8058 30.6855C38.8245 31.776 37.6966 32.4478 36.4214 32.4478H36.2113C35.483 32.4478 34.7706 32.2465 34.0731 31.8804C33.287 31.4773 32.6895 30.9023 32.2005 30.1742C31.695 29.4596 31.4207 28.6794 31.4207 27.8521V27.6009C31.4207 26.7876 31.5767 26.0164 31.97 25.2881C32.3905 24.492 32.9584 23.8729 33.7136 23.3807C34.4552 22.8919 35.2471 22.6521 36.1292 22.6521H36.2113C37.0111 22.6521 37.7683 22.8098 38.4829 23.1754C39.211 23.5653 39.8058 24.098 40.2669 24.7986C40.7148 25.4995 40.9813 26.2554 41.067 27.079C41.0805 27.2502 41.0873 27.4255 41.0873 27.593C41.0873 28.7107 40.6602 29.7459 39.8058 30.6855Z" fill="#F8761F"/>
</svg>
