<svg viewBox="15 7 27 34" fill="none" xmlns="http://www.w3.org/2000/svg">
<path d="M31.1349 8C27.5714 8 25.5105 9.59887 24.5164 10.7035C24.3982 9.75163 23.7703 8.51679 21.3203 8.51679H16V14.0858H18.1804C18.5493 14.0858 18.6681 14.2036 18.6681 14.5718V40H25.0103V30.4563C25.0103 30.1986 25.0051 29.9578 24.9985 29.7424C25.9892 30.6523 27.8811 31.9048 30.8363 31.9048C37.0351 31.9048 41.369 26.9911 41.369 19.9535C41.369 12.8042 37.254 8 31.1349 8ZM29.8464 26.3808C26.4322 26.3808 24.8811 23.1117 24.8811 20.083C24.8811 15.3124 27.49 13.612 29.9313 13.612C32.925 13.612 34.9385 16.1932 34.9385 20.0383C34.9385 24.4231 32.3784 26.3808 29.8464 26.3808Z" fill="#231F1F"/>
<path d="M31.1349 8C27.5714 8 25.5098 9.59887 24.5164 10.7031C24.3976 9.75163 23.7703 8.51679 21.3203 8.51679H16V14.0858H18.1804C18.5493 14.0858 18.6681 14.2036 18.6681 14.5715V28.7417C21.632 27.7123 24.6137 26.7351 27.6119 25.8107C25.7484 24.7442 24.8811 22.3476 24.8811 20.0823C24.8811 15.3127 27.49 13.612 29.9313 13.612C32.925 13.612 34.9385 16.1932 34.9385 20.0383C34.9385 21.6531 34.5879 22.934 34.022 23.9129C36.417 23.2341 38.8204 22.5848 41.2315 21.9652C41.3104 21.3158 41.369 20.6469 41.369 19.9535C41.369 12.8042 37.254 8 31.1349 8Z" fill="#3B3B3C"/>
</svg>
