<svg viewBox="8 9 42 30" fill="none" xmlns="http://www.w3.org/2000/svg">
<path d="M25.6456 13.0548C26.9357 11.7107 28.7317 10.877 30.718 10.877C33.3584 10.877 35.6621 12.3493 36.8889 14.5351C37.955 14.0588 39.1351 13.7938 40.3767 13.7938C45.139 13.7938 49 17.6884 49 22.4924C49 27.2969 45.139 31.1915 40.3767 31.1915C39.8062 31.1918 39.2372 31.1351 38.6781 31.0222C37.5978 32.9493 35.5391 34.2513 33.1761 34.2513C32.1869 34.2513 31.2513 34.0228 30.4183 33.6166C29.3231 36.1926 26.7715 37.9989 23.7977 37.9989C20.7009 37.9989 18.0615 36.0393 17.0484 33.2912C16.6057 33.3852 16.147 33.4342 15.6764 33.4342C11.9892 33.4343 9 30.4143 9 26.6884C9 24.1915 10.343 22.0114 12.3385 20.8451C11.9276 19.8998 11.6991 18.8565 11.6991 17.7596C11.6991 13.4747 15.1778 10.0012 19.4684 10.0012C21.9875 10.0012 24.2262 11.1989 25.6456 13.0548Z" fill="#00A1E0"/>
<path d="M14.7936 24.5201C14.7686 24.5857 14.8028 24.5994 14.8107 24.6107C14.8859 24.6654 14.9623 24.7048 15.0392 24.7486C15.4472 24.9651 15.8324 25.0283 16.2353 25.0283C17.0558 25.0283 17.5652 24.5919 17.5652 23.8893V23.8757C17.5652 23.2261 16.9903 22.9902 16.4507 22.8198L16.3806 22.797C15.9737 22.6648 15.6228 22.5509 15.6228 22.2831V22.2689C15.6228 22.0398 15.8279 21.8711 16.1458 21.8711C16.4991 21.8711 16.9185 21.9885 17.1886 22.1378C17.1886 22.1378 17.2678 22.1891 17.2968 22.1121C17.3128 22.0711 17.4495 21.703 17.4638 21.6631C17.4792 21.6198 17.4518 21.5879 17.4239 21.5708C17.1156 21.3833 16.6894 21.2551 16.2484 21.2551L16.1664 21.2557C15.4154 21.2557 14.8912 21.7093 14.8912 22.3594V22.3731C14.8912 23.0585 15.4695 23.2808 16.0114 23.4357L16.0986 23.4625C16.4935 23.5839 16.8336 23.6882 16.8336 23.9662V23.9799C16.8336 24.2341 16.6126 24.4232 16.2559 24.4232C16.1174 24.4232 15.6758 24.4204 15.1989 24.1189C15.1413 24.0853 15.1077 24.0608 15.0633 24.034C15.0399 24.0192 14.9812 23.9935 14.9556 24.0711L14.7936 24.5201ZM26.8056 24.5201C26.7805 24.5857 26.8147 24.5994 26.8227 24.6107C26.8979 24.6654 26.9743 24.7048 27.0511 24.7486C27.4591 24.9651 27.8444 25.0283 28.2472 25.0283C29.0677 25.0283 29.5771 24.5919 29.5771 23.8893V23.8757C29.5771 23.2261 29.0022 22.9902 28.4626 22.8198L28.3925 22.797C27.9856 22.6648 27.6346 22.5509 27.6346 22.2831V22.2689C27.6346 22.0398 27.8397 21.8711 28.1577 21.8711C28.511 21.8711 28.9303 21.9885 29.2004 22.1378C29.2004 22.1378 29.2796 22.1891 29.3087 22.1121C29.3246 22.0711 29.4614 21.703 29.4756 21.6631C29.4911 21.6198 29.4637 21.5879 29.4358 21.5708C29.1275 21.3833 28.7013 21.2551 28.2603 21.2551L28.1782 21.2557C27.4272 21.2557 26.903 21.7093 26.903 22.3594V22.3731C26.903 23.0585 27.4813 23.2808 28.0232 23.4357L28.1104 23.4625C28.5053 23.5839 28.8461 23.6882 28.8461 23.9662V23.9799C28.8461 24.2341 28.6244 24.4232 28.2677 24.4232C28.1293 24.4232 27.6877 24.4204 27.2107 24.1189C27.1532 24.0853 27.119 24.0619 27.0757 24.034C27.0609 24.0243 26.9914 23.9975 26.9674 24.0711L26.8056 24.5201ZM35.0058 23.1439C35.0058 23.5411 34.9317 23.8539 34.7859 24.075C34.6417 24.2938 34.4235 24.4004 34.1192 24.4004C33.8144 24.4004 33.5973 24.2944 33.4554 24.075C33.3118 23.8545 33.2389 23.5411 33.2389 23.1439C33.2389 22.7474 33.3118 22.4351 33.4554 22.2163C33.5973 21.9998 33.8144 21.8944 34.1192 21.8944C34.4235 21.8944 34.6417 21.9998 34.7865 22.2163C34.9318 22.4351 35.0058 22.7473 35.0058 23.1439ZM35.6907 22.4078C35.6235 22.1804 35.5186 21.9798 35.3791 21.8129C35.2394 21.6454 35.0628 21.5109 34.8531 21.4129C34.644 21.3155 34.3967 21.2659 34.1192 21.2659C33.8412 21.2659 33.5939 21.3155 33.3848 21.4129C33.1751 21.5109 32.9984 21.6454 32.8583 21.8129C32.7192 21.9804 32.6144 22.181 32.5466 22.4078C32.4799 22.6339 32.4463 22.8812 32.4463 23.1439C32.4463 23.4066 32.4799 23.6545 32.5466 23.8801C32.6144 24.1069 32.7187 24.3075 32.8589 24.475C32.9984 24.6425 33.1757 24.7764 33.3848 24.8715C33.5944 24.9667 33.8412 25.0151 34.1193 25.0151C34.3968 25.0151 34.6435 24.9667 34.8531 24.8715C35.0623 24.7764 35.2394 24.6425 35.3791 24.475C35.5187 24.308 35.6235 24.1075 35.6908 23.8801C35.758 23.6539 35.7916 23.406 35.7916 23.1439C35.7916 22.8818 35.758 22.6339 35.6907 22.4078ZM41.315 24.2943C41.2923 24.2276 41.2279 24.2527 41.2279 24.2527C41.1282 24.2909 41.0221 24.3262 40.9094 24.3439C40.7948 24.3615 40.6689 24.3706 40.5338 24.3706C40.2022 24.3706 39.939 24.2721 39.7504 24.0772C39.5612 23.8823 39.4552 23.5672 39.4563 23.141C39.4575 22.753 39.5509 22.4612 39.719 22.239C39.886 22.018 40.1401 21.9045 40.4792 21.9045C40.7618 21.9045 40.9772 21.937 41.2028 22.0082C41.2028 22.0082 41.2569 22.0316 41.2825 21.961C41.3424 21.7945 41.3868 21.6755 41.4506 21.4926C41.4689 21.4407 41.4244 21.4185 41.4085 21.4122C41.3196 21.3774 41.1099 21.3211 40.9515 21.2971C40.8033 21.2743 40.6301 21.2624 40.4375 21.2624C40.1497 21.2624 39.8933 21.3114 39.674 21.4094C39.4552 21.5068 39.2694 21.6413 39.1224 21.8088C38.9754 21.9764 38.8638 22.1769 38.7891 22.4037C38.715 22.6299 38.6774 22.8783 38.6774 23.141C38.6774 23.7091 38.8307 24.1683 39.1333 24.5045C39.4364 24.8419 39.8917 25.0134 40.4855 25.0134C40.8364 25.0134 41.1966 24.9422 41.4553 24.8402C41.4553 24.8402 41.5048 24.8162 41.4832 24.7587L41.315 24.2943ZM42.5134 22.7635C42.5459 22.543 42.6069 22.3595 42.7009 22.2165C42.8428 21.9994 43.0593 21.8803 43.3636 21.8803C43.6679 21.8803 43.869 22 44.0131 22.2165C44.1089 22.3595 44.1505 22.551 44.167 22.7635H42.5134ZM44.8194 22.2786C44.7613 22.0592 44.6171 21.8375 44.5225 21.7361C44.3732 21.5754 44.2274 21.4632 44.0827 21.4005C43.8935 21.3196 43.6667 21.266 43.4183 21.266C43.1288 21.266 42.8661 21.3145 42.653 21.4147C42.4394 21.515 42.2599 21.6518 42.1191 21.8222C41.9783 21.9919 41.8724 22.1942 41.8051 22.4239C41.7373 22.6524 41.7031 22.9014 41.7031 23.164C41.7031 23.4313 41.7385 23.6803 41.8086 23.9042C41.8792 24.1298 41.992 24.3287 42.1448 24.4933C42.2969 24.6592 42.4929 24.7891 42.7277 24.8796C42.9607 24.9697 43.2439 25.0164 43.5693 25.0158C44.2388 25.0135 44.5915 24.8643 44.7368 24.7839C44.7624 24.7697 44.787 24.7446 44.7561 24.6728L44.6046 24.2483C44.5818 24.1851 44.5174 24.2084 44.5174 24.2084C44.3516 24.2699 44.1157 24.3805 43.5658 24.3794C43.2063 24.3788 42.9396 24.2728 42.7726 24.107C42.6011 23.9372 42.5174 23.6876 42.5026 23.3355L44.8211 23.3378C44.8211 23.3378 44.882 23.3366 44.8883 23.2773C44.8906 23.2524 44.9681 22.8011 44.8194 22.2786ZM23.9454 22.7635C23.9785 22.543 24.0389 22.3595 24.1329 22.2165C24.2748 21.9994 24.4913 21.8803 24.7956 21.8803C25.0998 21.8803 25.301 22 25.4457 22.2165C25.5408 22.3595 25.5824 22.551 25.599 22.7635H23.9454ZM26.2508 22.2786C26.1927 22.0592 26.0491 21.8375 25.9546 21.7361C25.8053 21.5754 25.6594 21.4632 25.5147 21.4005C25.3255 21.3196 25.0987 21.266 24.8503 21.266C24.5614 21.266 24.2981 21.3145 24.0851 21.4147C23.8714 21.515 23.6919 21.6518 23.5512 21.8222C23.4104 21.9919 23.3044 22.1942 23.2372 22.4239C23.17 22.6524 23.1352 22.9014 23.1352 23.164C23.1352 23.4313 23.1705 23.6803 23.2406 23.9042C23.3113 24.1298 23.4242 24.3287 23.5768 24.4933C23.729 24.6592 23.925 24.7891 24.1597 24.8796C24.3928 24.9697 24.676 25.0164 25.0013 25.0158C25.6708 25.0135 26.0236 24.8643 26.1689 24.7839C26.1945 24.7697 26.219 24.7446 26.1882 24.6728L26.0372 24.2483C26.0139 24.1851 25.9495 24.2084 25.9495 24.2084C25.7837 24.2699 25.5484 24.3805 24.9974 24.3794C24.6384 24.3788 24.3717 24.2728 24.2048 24.107C24.0332 23.9372 23.9495 23.6876 23.9347 23.3355L26.2532 23.3378C26.2532 23.3378 26.3141 23.3366 26.3204 23.2773C26.3226 23.2524 26.4001 22.8011 26.2508 22.2786ZM18.934 24.2816C18.8434 24.2092 18.8308 24.191 18.8001 24.1443C18.7545 24.073 18.7311 23.9716 18.7311 23.8428C18.7311 23.6388 18.7984 23.4924 18.938 23.3938C18.9363 23.3944 19.1374 23.2201 19.6103 23.2263C19.9425 23.2309 20.2394 23.2799 20.2394 23.2799V24.334H20.2399C20.2399 24.334 19.9454 24.3972 19.6137 24.4172C19.142 24.4457 18.9323 24.281 18.934 24.2816ZM19.8565 22.6525C19.7625 22.6457 19.6405 22.6417 19.4946 22.6417C19.2958 22.6417 19.1038 22.6667 18.9237 22.7152C18.7425 22.7636 18.5795 22.8394 18.4394 22.9397C18.2994 23.0396 18.1844 23.1704 18.1032 23.322C18.0212 23.4747 17.9795 23.6548 17.9795 23.8565C17.9795 24.0616 18.0149 24.24 18.0855 24.3859C18.1562 24.5323 18.2582 24.6542 18.3881 24.7483C18.5168 24.8423 18.6758 24.9112 18.8604 24.9528C19.0422 24.9944 19.2485 25.0154 19.4741 25.0154C19.7117 25.0154 19.9488 24.9961 20.1784 24.9567C20.4057 24.918 20.6849 24.8616 20.7624 24.844C20.8167 24.8309 20.8709 24.817 20.9248 24.8024C20.9824 24.7881 20.9778 24.7266 20.9778 24.7266L20.9767 22.6064C20.9767 22.1414 20.8525 21.7966 20.608 21.583C20.3647 21.3699 20.0063 21.2621 19.5431 21.2621C19.3693 21.2621 19.0895 21.2861 18.922 21.3197C18.922 21.3197 18.4154 21.4177 18.2069 21.5807C18.2069 21.5807 18.1613 21.6092 18.1864 21.673L18.3505 22.1141C18.371 22.171 18.4263 22.1517 18.4263 22.1517C18.4263 22.1517 18.4439 22.1448 18.4645 22.1328C18.9106 21.8901 19.4747 21.8975 19.4747 21.8975C19.7255 21.8975 19.918 21.9477 20.0479 22.0474C20.1744 22.1442 20.2388 22.2906 20.2388 22.5995V22.6975C20.0394 22.669 19.8565 22.6525 19.8565 22.6525ZM38.5563 21.4579C38.5739 21.4054 38.5369 21.3804 38.5215 21.3747C38.4823 21.3593 38.2851 21.3177 38.1329 21.308C37.8418 21.2904 37.68 21.3394 37.5352 21.4043C37.3916 21.4693 37.2321 21.5741 37.1432 21.6932V21.4112C37.1432 21.3718 37.1153 21.3405 37.0765 21.3405H36.4822C36.4435 21.3405 36.4156 21.3718 36.4156 21.4112V24.8693C36.4156 24.908 36.4475 24.9399 36.4862 24.9399H37.0953C37.114 24.9398 37.1319 24.9323 37.145 24.9191C37.1581 24.9058 37.1655 24.8879 37.1654 24.8693V23.1417C37.1654 22.9097 37.1911 22.6784 37.2424 22.5331C37.2925 22.3895 37.3609 22.2744 37.4452 22.1918C37.5301 22.1097 37.6264 22.0522 37.7318 22.0197C37.8395 21.9867 37.9586 21.9758 38.0429 21.9758C38.1643 21.9758 38.2976 22.0072 38.2976 22.0072C38.342 22.0123 38.3671 21.9849 38.3819 21.9445C38.4218 21.8385 38.5347 21.5211 38.5563 21.4579Z" fill="white"/>
<path d="M32.8388 19.8551C32.7647 19.8323 32.6975 19.8169 32.6097 19.8004C32.5208 19.7845 32.4148 19.7765 32.2946 19.7765C31.8752 19.7765 31.5447 19.895 31.3129 20.1286C31.0821 20.3611 30.9254 20.7149 30.8467 21.1805L30.8182 21.3372H30.2918C30.2918 21.3372 30.2279 21.3349 30.2142 21.4044L30.1282 21.887C30.1219 21.9326 30.1419 21.9617 30.2034 21.9617H30.7157L30.196 24.8631C30.1555 25.0967 30.1088 25.2888 30.057 25.4346C30.0062 25.5782 29.9567 25.6859 29.8952 25.7645C29.8359 25.8398 29.78 25.8956 29.6832 25.928C29.6034 25.9548 29.5111 25.9674 29.4102 25.9674C29.3544 25.9674 29.2798 25.9582 29.2245 25.9468C29.1698 25.936 29.1407 25.924 29.0991 25.9063C29.0991 25.9063 29.0393 25.8836 29.0154 25.9434C28.9965 25.993 28.8598 26.3684 28.8433 26.4146C28.8273 26.4608 28.8501 26.4967 28.8791 26.5075C28.9475 26.5314 28.9982 26.5474 29.0911 26.5696C29.2199 26.5998 29.3287 26.6015 29.4307 26.6015C29.6438 26.6015 29.8387 26.5713 29.9999 26.5132C30.1618 26.4545 30.3031 26.3525 30.4284 26.2146C30.5635 26.0653 30.6484 25.9092 30.7293 25.6956C30.8096 25.4847 30.8786 25.2226 30.9333 24.9172L31.4558 21.9617H32.2193C32.2193 21.9617 32.2837 21.964 32.2968 21.8939L32.3834 21.4118C32.3891 21.3657 32.3698 21.3372 32.3076 21.3372H31.5663C31.5703 21.3207 31.6039 21.0597 31.6888 20.8142C31.7253 20.7099 31.7937 20.625 31.8512 20.5668C31.9083 20.5099 31.9738 20.4694 32.0456 20.446C32.1191 20.4221 32.2029 20.4107 32.2946 20.4107C32.3641 20.4107 32.433 20.4187 32.4849 20.4295C32.5567 20.4449 32.5846 20.4529 32.6034 20.4586C32.6792 20.4814 32.6894 20.4592 32.7043 20.4227L32.8815 19.9361C32.8997 19.8836 32.8547 19.8614 32.8388 19.8551ZM22.4812 24.8694C22.4812 24.9081 22.4533 24.9395 22.4146 24.9395H21.7997C21.761 24.9395 21.7336 24.9081 21.7336 24.8694V19.9212C21.7336 19.8825 21.761 19.8512 21.7997 19.8512H22.4146C22.4533 19.8512 22.4812 19.8825 22.4812 19.9212V24.8694Z" fill="white"/>
</svg>
