<svg viewBox="11 6 36 36" fill="none" xmlns="http://www.w3.org/2000/svg">
<path d="M28.0697 29.6678H29.9304V24.5932H34.6103V22.7889H29.9304V17.7142H28.0697V22.7889H23.4461V24.5932H28.0697V29.6678Z" fill="#E8762D"/>
<path d="M19.4428 36.9978H21.0216V32.487H25.194V31.0774H21.0216V26.5103H19.4428V31.0774H15.2703V32.487H19.4428V36.9978Z" fill="#C72037"/>
<path d="M36.9784 20.7027H38.5572V16.1919H42.7861V14.8386H38.5572V10.2715H36.9784V14.8386H32.806V16.1919H36.9784V20.7027Z" fill="#5B879B"/>
<path d="M28.3516 40.5501H29.7048V37.3361H32.5804V36.152H29.7048V32.9381H28.3516V36.152H25.5323V37.3361H28.3516V40.5501Z" fill="#5C6692"/>
<path d="M19.4992 20.7027H20.9652V16.1355H25.194V14.8386H20.9652V10.2715H19.4992V14.8386H15.2703V16.1355H19.4992V20.7027Z" fill="#EB9129"/>
<path d="M41.7711 27.4688H43.1244V24.3112H46V23.0708H43.1244V19.9132H41.7711V23.0708H38.9519V24.3112H41.7711V27.4688Z" fill="#5C6692"/>
<path fill-rule="evenodd" clip-rule="evenodd" d="M36.9784 36.9978H38.5572V32.487H42.7861V31.0774H38.5572V26.5103H36.9784V31.0774H32.806V32.487H36.9784V36.9978Z" fill="#1F457E"/>
<path d="M32.3549 11.0608V10.1023H29.5357V7.0011H28.5207V10.1023H25.7015V11.0608H28.5207V14.162H29.5357V11.0608H32.3549ZM14.8192 27.2432H15.8342V24.1421H18.6534V23.1835H15.8342V20.1387H14.8192V23.1835H12V24.1984L14.8192 24.1421V27.2432Z" fill="#7199A6"/>
</svg>
