<svg xmlns="http://www.w3.org/2000/svg" viewBox="0 0 118.4 118">
  <path d="M31.5,17.6c0,7.4-6,13.5-13.5,13.5c-7.4,0-13.5-6-13.5-13.5c0-7.4,6-13.5,13.5-13.5C25.4,4.1,31.5,10.2,31.5,17.6" fill="#2CD5C4"/>
  <path d="M113.9,17.6c0,7.4-6,13.5-13.5,13.5C93,31.1,87,25,87,17.6c0-7.4,6-13.5,13.5-13.5C107.9,4.1,113.9,10.2,113.9,17.6" fill="#2CD5C4"/>
  <path d="M59.2,117.9c-29.8,0-54-24.2-54-54v-8.6c0-7,5.7-12.7,12.7-12.7c7,0,12.7,5.7,12.7,12.7v8.9c0,15.7,9.3,28.5,28.5,28.5c17.9,0,28.5-12.8,28.5-28.5v-8.9c0-7,5.7-12.7,12.7-12.7c7,0,12.7,5.7,12.7,12.7v8.6C113.2,93.7,89,117.9,59.2,117.9" fill="#005857"/></svg>
