<svg id="Layer_1" style="enable-background:new 0 0 650 129.9" version="1.1" viewBox="0 0 650 129.9" x="0px" xml:space="preserve" xmlns="http://www.w3.org/2000/svg" xmlns:xlink="http://www.w3.org/1999/xlink" y="0px"> <style type="text/css">
 .st0{fill:#009DE0;}
 .st1{fill:#000000;}
</style> <g> <path class="st0" d="M90.8,111.6c21.2-21.2,21.2-55.5,0-76.7L74.2,51.5c12,12,12,31.5,0,43.5c-12,12-31.5,12-43.5,0l-16.6,16.6
  C35.3,132.7,69.6,132.7,90.8,111.6z"></path> <path class="st0" d="M47.3,78.4c-12-12-12-31.5,0-43.5c12-12,31.5-12,43.5,0l0,0l16.6-16.6l0,0c-21.2-21.2-55.5-21.2-76.7,0
  S9.5,73.8,30.7,95l0,0L47.3,78.4L47.3,78.4z"></path> </g> <path class="st1" d="M241.5,95.2h-13.1V36.4h13.1V95.2z"></path> <path class="st1" d="M373.4,33.1c17.8,0,30.2,13,30.2,31.5s-12.5,31.5-30.2,31.5c-17.7,0-30.2-13-30.2-31.5S355.7,33.1,373.4,33.1z
  M373.4,45.5c-9.4,0-15.9,7.4-15.9,19.2s6.5,19.2,15.9,19.2c9.4,0,16-7.4,16-19.2C389.4,52.9,382.8,45.5,373.4,45.5z"></path> <path class="st1" d="M424.8,36.4h24.6c12.8,0,19.7,5.6,19.7,15.8c0,6.8-4.1,10.8-8,12.5c5.6,2.1,10.4,6.9,10.4,14
 c0,10.4-7.4,16.5-20,16.5h-26.8V36.4z M448,60.1c5.3,0,8.3-2.1,8.3-6.2s-2.9-6.1-8.3-6.1H438v12.4H448z M437.9,84h12.5
 c5.3,0,8.1-2.7,8.1-6.7c0-3.9-2.9-6.7-8.1-6.7h-12.5V84z"></path> <path class="st1" d="M523.5,95.2h-13.1V52.1h13.1V95.2z"></path> <path class="st1" d="M527.7,73.5c0-12.8,9.2-22.4,21.6-22.4c13.1,0,20.2,9.7,20.2,21.9v3.5h-29.3c0.9,5.9,4.4,9.3,9.4,9.3
 c4.1,0,7.3-2,8.5-5.7l11,3.5c-3.2,8.3-11.1,12.6-19.7,12.6C536.6,96,527.7,86.9,527.7,73.5z M540.8,68.3h15.9
 c-0.1-3.8-2.6-7.1-7.5-7.1C545.2,61.2,542.1,63.6,540.8,68.3z"></path> <path class="st1" d="M574.8,52.1h13.1v4.3c2.4-2.8,6.4-5.3,11.9-5.3c8.8,0,14.4,6.1,14.4,15.6v28.5H601V70.5c0-4.3-1.8-7.5-6.1-7.5
 c-3.6,0-7.1,2.5-7.1,7.6v24.7h-13.1V52.1z"></path> <path class="st1" d="M517,33.8c4.3,0,7.5,3,7.5,7.2s-3.1,7.2-7.5,7.2c-4.2,0-7.4-3-7.4-7.2S512.9,33.8,517,33.8z"></path> <path class="st1" d="M413.2,32.6c-2.1,0-3.9,0.8-5.1,2.1c-1.3,1.2-2.1,2.9-2.1,4.9c0,2.8,1.6,5.1,4,6.1l-2.9,8.8h6.7l4-7.6
 c1.7-3.5,2.4-5.5,2.4-7.6C420.1,35.4,417.1,32.6,413.2,32.6z"></path> <path class="st1" d="M505.3,52.8c0-0.1-0.8-0.3-0.9-0.4c-0.3-0.1-2.4-0.8-5.6-0.5c-1.6,0.2-2.7,0.6-3.8,1.1
 c-2.1,0.9-4.1,2.4-5.3,4.4c-0.1,0.1-0.2,0.3-0.3,0.4v-5.6h-13.1v43.1h13.1V74c0-6.2,4.5-9.8,10.1-9.8c1.2,0,2.1,0,3.2,0.2
 c0.8,0.2,1.7,0.4,2.6,0.8C505.3,65.3,505.3,52.8,505.3,52.8z"></path> <path class="st1" d="M222.6,66.4c0-10.1-6.9-15.2-18.3-15.2c-11,0-17.8,6.2-19.7,13.8l12.5,1.9c0.8-3.5,2.8-5.2,6.6-5.2
 c4.3,0,6,2.1,6,5.3v0.8l-9.7,1.6c-9.1,1.3-16.6,4.9-16.6,13.8c0,7.6,6.2,12.8,14.9,12.8c5.8,0,9.8-2.9,11.6-5.8v5h12.7l0,0l0,0V66.4
 z M209.7,79.8c0,4.4-4,6.7-8.3,6.7c-3.1,0-5.2-1.5-5.2-4.2c0-3,2.5-4.2,6-4.8l7.5-1.4V79.8z"></path> <path class="st1" d="M285.8,95.2V66.4c0-10.1-6.9-15.2-18.3-15.2c-11,0-17.8,6.2-19.7,13.8l12.5,1.9c0.8-3.5,2.8-5.2,6.6-5.2
 c4.3,0,6,2.1,6,5.3v0.8l-9.7,1.6c-9.1,1.3-16.6,4.9-16.6,13.8c0,7.6,6.2,12.8,14.9,12.8c5.8,0,9.8-2.9,11.6-5.8v5L285.8,95.2
 L285.8,95.2L285.8,95.2z M272.9,79.8c0,4.4-4,6.7-8.3,6.7c-3.1,0-5.2-1.5-5.2-4.2c0-3,2.5-4.2,6-4.8l7.5-1.4V79.8z"></path> <g> <path class="st1" d="M148.4,51.7c0-3.2,2.9-5.2,7.5-5.2c5.3,0,9.2,2.8,10.2,7.3l13-2.5C176.9,41.1,168.4,35,155.8,35
  c-11.8,0-21.3,7-21.3,17.3c0,22,31.5,15.3,31.5,26.2c0,3.7-3.5,6-8.6,6c-5.6,0-10.1-2.8-11.2-8.7c-0.1-0.5-0.1-1-0.2-1.6l-13,2.4
  c0,0.3,0,0.6,0.1,0.9c0.3,1.8,1,3.7,1.7,5.3c3.7,8.5,11.7,13.1,22.5,13.1c13.1,0,22.5-7.1,22.5-18.3
  C179.9,54.7,148.4,61.1,148.4,51.7z"></path> </g> <path class="st1" d="M302.4,62.8c0-1.9,2-3.1,4.7-3.1c3.8,0,6.4,1.9,7.2,5.1l11.4-2.1c-1.9-7.5-8.5-12.1-18.6-12.1
 c-10.2,0-16.5,5.8-16.5,13c0,16.5,23.9,11.2,23.9,18.7c0,2.4-2.1,3.9-5.8,3.9c-4.3,0-6.7-2.1-7.1-5.7L290,82.7
 c1.5,7.8,8.2,13.3,18.7,13.3c10.4,0,17.9-5.9,17.9-14.1C326.6,64.1,302.4,69.9,302.4,62.8z"></path> <g> <path class="st1" d="M621.9,95.2c-1.6,0-2.9-1.2-2.9-2.9c0-1.7,1.3-2.9,2.9-2.9s2.9,1.2,2.9,2.9C624.8,94,623.5,95.2,621.9,95.2z
   M621.9,89.7c-1.4,0-2.5,1.1-2.5,2.5c0,1.4,1.1,2.5,2.5,2.5s2.5-1.1,2.5-2.5C624.4,90.8,623.3,89.7,621.9,89.7z M622.7,93.7
  l-0.9-1.2h-0.6v1.2h-0.4v-2.9h1.2c0.7,0,1,0.3,1,0.8c0,0.5-0.5,0.8-0.8,0.8l0.9,1.2H622.7z M622,91.1h-0.8v1.1h0.8
  c0.4,0,0.7-0.2,0.7-0.5C622.6,91.3,622.4,91.1,622,91.1z"></path> </g> </svg>